<?xml version="1.0" encoding="utf-8"?>
<!-- Generator: Adobe Illustrator 25.4.1, SVG Export Plug-In . SVG Version: 6.00 Build 0)  -->
<svg version="1.1" id="Layer_1" xmlns="http://www.w3.org/2000/svg" xmlns:xlink="http://www.w3.org/1999/xlink" x="0px" y="0px"
	 viewBox="0 0 202.5 195.53" style="enable-background:new 0 0 202.5 195.53;" xml:space="preserve">
<style type="text/css">
	.st0{fill:#2C3E56;}
	.st1{fill:#AFC2C9;}
</style>
<g>
	<path class="st0" d="M34.02,122.58c8.95,0.4,15.71-2.79,15.71-2.79c-13.33,0-13.53-0.4-13.53-0.4
		c26.85-2.59,31.43-13.95,31.43-13.95c-16.71,9.37-23.87,7.17-23.87,7.17s45.35-21.12,54.3-38.86
		c8.95-17.74,34.71-39.56,34.71-39.56c-67,20.74-100.99,83.61-112.14,108.58h0.19c4.8-8.94,11.61-18.81,11.61-18.81"/>
	<g>
		<path class="st1" d="M66.37,111.77c-0.71,0-1.37-0.08-1.99-0.25c-0.62-0.17-1.13-0.42-1.53-0.77c-0.22-0.19-0.41-0.44-0.59-0.77
			s-0.26-0.72-0.26-1.18c0-1.1,0.49-2.36,1.46-3.77c0.97-1.41,2.21-2.85,3.74-4.33c1.52-1.48,3.14-2.88,4.86-4.21
			c-1.13-1.11-2.35-2.29-3.67-3.52c-1.32-1.23-2.54-2.47-3.67-3.71c-1.27-1.42-1.91-2.92-1.91-4.52c0-0.72,0.14-1.46,0.41-2.21
			c0.68-1.78,1.84-3.38,3.47-4.8c1.64-1.42,3.37-2.58,5.2-3.47c1.83-0.9,3.37-1.46,4.61-1.67c0.45-0.07,0.87-0.11,1.26-0.11
			c1.25,0,2.21,0.37,2.91,1.11c0.33,0.41,0.56,0.86,0.68,1.36s0.18,0.98,0.18,1.44c0,0.39-0.03,0.76-0.08,1.1
			c-0.05,0.34-0.1,0.62-0.16,0.84c-0.06,0.22-0.09,0.34-0.09,0.37c-0.14,0.3-0.35,0.46-0.63,0.46c-0.41-0.07-0.61-0.28-0.61-0.63
			c0-0.07,0.01-0.14,0.02-0.2c0.19-0.78,0.28-1.43,0.28-1.93c0-0.36-0.04-0.71-0.12-1.05c-0.08-0.34-0.24-0.64-0.47-0.9
			c-0.38-0.46-1.01-0.69-1.89-0.69c-0.78,0-1.75,0.2-2.91,0.6c-1.16,0.4-2.36,0.95-3.6,1.65c-1.25,0.7-2.41,1.52-3.5,2.44
			c-1.09,0.93-1.98,1.93-2.67,3c-0.69,1.07-1.04,2.17-1.04,3.3c0,1.3,0.53,2.53,1.58,3.69c1.19,1.3,2.44,2.57,3.77,3.8
			s2.54,2.4,3.64,3.5c1.1-0.82,2.17-1.6,3.2-2.31c1.04-0.72,1.98-1.35,2.82-1.89c0.85-0.54,1.53-0.97,2.06-1.29s0.84-0.51,0.92-0.56
			c0.13-0.06,0.25-0.09,0.35-0.09c0.32,0,0.53,0.21,0.63,0.63c0,0.2-0.1,0.39-0.3,0.56c-0.06,0.03-0.51,0.3-1.35,0.81
			c-0.84,0.51-1.92,1.21-3.24,2.1c-1.32,0.88-2.72,1.88-4.21,2.98c0.75,0.78,1.43,1.58,2.03,2.39s1.08,1.64,1.43,2.49
			c0.36,0.85,0.53,1.7,0.53,2.57c-0.06,2.59-1.94,4.71-5.65,6.36C70.25,111.33,68.27,111.77,66.37,111.77z M66.37,110.51
			c1.59,0,3.4-0.41,5.43-1.22c3.2-1.43,4.83-3.16,4.91-5.19c0-1.11-0.35-2.23-1.05-3.34s-1.6-2.23-2.68-3.34
			c-1.45,1.11-2.91,2.36-4.4,3.73c-1.48,1.38-2.74,2.74-3.76,4.1c-1.02,1.36-1.53,2.54-1.53,3.54c0,0.59,0.27,1.03,0.81,1.3
			C64.65,110.37,65.4,110.51,66.37,110.51z"/>
		<path class="st1" d="M80.32,112.76c-0.03,0-0.07-0.01-0.12-0.02c-0.02,0-0.1-0.04-0.23-0.11c-0.13-0.08-0.2-0.24-0.2-0.49
			c0.14-3.3,0.65-8.16,1.53-14.57s1.79-12.16,2.71-17.25c-1.48,0.19-2.78,0.35-3.89,0.5c-1.11,0.15-2.05,0.28-2.8,0.39
			c-0.75,0.11-1.32,0.2-1.72,0.26s-0.61,0.1-0.64,0.1c-0.28,0-0.44-0.17-0.5-0.5c0-0.23,0.14-0.4,0.43-0.5
			c0.14-0.02,0.64-0.1,1.52-0.23c0.87-0.13,1.98-0.29,3.34-0.49c1.35-0.19,2.83-0.38,4.44-0.56l0.8-4.28
			c0.37-1.85,0.67-3.19,0.89-4.04c0.23-0.84,0.4-1.38,0.52-1.62c0.12-0.24,0.21-0.36,0.27-0.37c0.1-0.07,0.21-0.1,0.33-0.1
			c0.35,0.03,0.52,0.21,0.52,0.52c-0.03,0.21-0.12,0.35-0.24,0.42c-0.09,0.16-0.24,0.63-0.43,1.41s-0.43,1.84-0.69,3.17
			s-0.57,2.93-0.9,4.77c1.8-0.21,3.65-0.39,5.55-0.55c1.9-0.16,3.62-0.23,5.16-0.23c0.97,0,1.83,0.04,2.58,0.13
			c0.75,0.09,1.34,0.22,1.77,0.41c0.2,0.12,0.29,0.27,0.29,0.47c-0.04,0.14-0.09,0.26-0.16,0.35c-0.07,0.1-0.19,0.15-0.36,0.15
			l-0.17-0.03c-0.81-0.31-2.11-0.47-3.92-0.47c-1.53,0-3.26,0.08-5.19,0.24c-1.94,0.16-3.85,0.35-5.73,0.57
			c-0.79,4.34-1.61,9.5-2.47,15.46s-1.43,10.79-1.71,14.49v0.07c0.14,0.02,0.26,0.08,0.36,0.16c0.1,0.08,0.15,0.2,0.15,0.36
			l-0.02,0.1c0,0.01-0.03,0.1-0.08,0.27s-0.12,0.35-0.2,0.55c-0.1,0.34-0.21,0.6-0.31,0.81C80.68,112.66,80.53,112.76,80.32,112.76z
			"/>
		<path class="st1" d="M95.52,102.05c-0.58-0.02-1.01-0.34-1.3-0.95s-0.43-1.7-0.43-3.28c0-1.07,0.06-2.27,0.18-3.59
			c0.12-1.32,0.25-2.36,0.37-3.12l-0.55,1.23c-1.79,4.08-3.35,6.12-4.66,6.12c-0.62-0.07-1.08-0.36-1.35-0.86s-0.42-1.21-0.42-2.12
			c0-0.84,0.09-1.72,0.26-2.64c0.17-0.92,0.35-1.72,0.54-2.41c0.18-0.69,0.31-1.12,0.36-1.31c0.1-0.27,0.27-0.38,0.5-0.35
			c0.29,0.05,0.44,0.26,0.47,0.64c-0.22,0.68-0.46,1.63-0.73,2.83c-0.27,1.21-0.4,2.31-0.4,3.3c0,0.57,0.06,1.02,0.17,1.35
			s0.32,0.51,0.61,0.54c0.15,0,0.38-0.12,0.68-0.36c0.31-0.24,0.71-0.75,1.21-1.54c0.5-0.79,1.11-2,1.83-3.61
			c0.67-1.56,1.22-2.95,1.66-4.17c0.43-1.22,0.66-1.87,0.68-1.95c0.14-0.21,0.3-0.31,0.49-0.31c0.32,0.05,0.49,0.22,0.49,0.52v0.07
			c-0.27,1.38-0.56,3.23-0.88,5.55c-0.32,2.33-0.49,4.41-0.49,6.23c0,0.73,0.04,1.35,0.11,1.87s0.19,0.9,0.36,1.14
			c0.08,0.09,0.14,0.14,0.17,0.14c0.46,0,0.99-0.32,1.59-0.95c0.59-0.64,1.21-1.46,1.84-2.47s1.24-2.11,1.84-3.29
			c0.59-1.18,1.13-2.35,1.62-3.49c0.13-0.21,0.28-0.31,0.47-0.31c0.13,0,0.24,0.05,0.35,0.15c0.1,0.1,0.16,0.21,0.16,0.34
			c0,0.07-0.01,0.13-0.04,0.19c0,0.01-0.25,0.58-0.76,1.7c-0.51,1.12-1.15,2.38-1.92,3.78C98.59,100.25,96.91,102.05,95.52,102.05z"
			/>
		<path class="st1" d="M111.15,108.87c-0.23,0-0.44-0.06-0.62-0.17c-0.61-0.37-1.07-1.35-1.36-2.95c-0.29-1.6-0.44-3.68-0.44-6.23
			c0-2.5,0.11-5.09,0.34-7.77s0.49-4.94,0.81-6.75c-0.68,1.76-1.51,3.8-2.5,6.14c-0.65,1.43-1.23,2.59-1.74,3.47
			s-0.97,1.54-1.36,1.99s-0.74,0.75-1.03,0.9c-0.29,0.15-0.55,0.23-0.77,0.23c-0.17,0.01-0.39-0.06-0.64-0.2
			c-0.25-0.15-0.45-0.42-0.59-0.84c-0.09-0.33-0.14-0.7-0.14-1.11c0-0.54,0.07-1.12,0.2-1.72c0.13-0.61,0.29-1.18,0.46-1.71
			c0.52-1.44,1.13-2.58,1.83-3.41s1.41-1.25,2.12-1.25c0.4,0,0.76,0.12,1.07,0.35c0.31,0.23,0.51,0.47,0.6,0.71
			c1.28-3.03,2.65-6.75,4.09-11.16c0.3-1.04,0.61-1.98,0.92-2.81c0.13-0.21,0.28-0.31,0.47-0.31c0.25,0,0.42,0.16,0.5,0.49
			c0,0.06-0.01,0.12-0.02,0.17l-0.09,0.24l-0.81,2.55c-0.84,3.17-1.5,6.81-1.98,10.92c-0.48,4.11-0.72,7.78-0.72,10.99
			c0,2.56,0.14,4.58,0.42,6.06s0.61,2.21,1.01,2.21c0.13,0,0.26-0.06,0.4-0.18c0.14-0.12,0.28-0.26,0.42-0.42
			c0.13-0.13,0.26-0.19,0.4-0.19c0.25,0,0.42,0.17,0.5,0.52c0,0.1-0.04,0.21-0.12,0.33c-0.31,0.36-0.6,0.61-0.87,0.75
			S111.37,108.87,111.15,108.87z M102.49,96.69c0.1,0,0.26-0.07,0.47-0.2c0.21-0.13,0.48-0.41,0.81-0.84
			c0.33-0.43,0.73-1.06,1.19-1.91s1.01-1.96,1.65-3.36c0.05-0.16,0.07-0.33,0.07-0.52c0-0.39-0.09-0.72-0.28-0.98
			c-0.18-0.26-0.42-0.39-0.69-0.39c-0.22,0-0.47,0.1-0.75,0.29c-0.75,0.61-1.41,1.63-1.98,3.06c-0.57,1.43-0.86,2.67-0.86,3.73
			c0,0.32,0.03,0.58,0.1,0.78c0.05,0.16,0.09,0.26,0.14,0.29s0.09,0.04,0.12,0.04H102.49z"/>
		<path class="st1" d="M115.66,117.07c-0.51,0-0.94-0.26-1.29-0.79c-0.35-0.53-0.53-1.25-0.53-2.16c0-0.88,0.15-1.9,0.45-3.07
			c0.83-2.89,1.99-5.56,3.47-8.01c1.48-2.45,2.93-4.53,4.37-6.24c0.67-5.52,1.08-9.37,1.21-11.54c-0.6,1.33-1.25,2.69-1.96,4.09
			c-0.7,1.4-1.43,2.7-2.18,3.91c-0.75,1.21-1.48,2.19-2.2,2.95c-0.72,0.76-1.38,1.13-1.99,1.13c-0.54,0-0.94-0.27-1.19-0.81
			c-0.25-0.54-0.37-1.21-0.37-1.99c0-0.77,0.07-1.54,0.2-2.3c0.13-0.76,0.24-1.32,0.32-1.68c0.06-0.25,0.18-0.71,0.37-1.37
			c0.19-0.66,0.44-1.31,0.74-1.97c0.3-0.65,0.64-1.09,1.01-1.33c0.08-0.03,0.16-0.05,0.24-0.05c0.25,0,0.42,0.17,0.49,0.5
			c0,0.16-0.09,0.31-0.26,0.43c-0.44,0.3-0.96,1.63-1.58,4c-0.33,1.5-0.5,2.77-0.5,3.8c0,0.65,0.05,1.1,0.16,1.37
			c0.1,0.27,0.22,0.4,0.35,0.4c0.62-0.14,1.31-0.7,2.07-1.67c0.76-0.98,1.51-2.15,2.26-3.52c0.75-1.37,1.44-2.72,2.07-4.06
			s1.14-2.44,1.53-3.3l0.49-1.06c0.08-0.19,0.17-0.34,0.27-0.48c0.1-0.13,0.23-0.2,0.39-0.2c0.12,0.01,0.23,0.06,0.34,0.13
			c0.11,0.08,0.16,0.21,0.16,0.39c0,0.14-0.03,0.58-0.08,1.32s-0.13,1.7-0.23,2.88c-0.1,1.18-0.23,2.5-0.38,3.98
			s-0.32,3.02-0.52,4.64c0.83-0.97,1.62-1.83,2.36-2.57c0.74-0.74,1.34-1.32,1.8-1.74c0.46-0.42,0.71-0.64,0.73-0.65
			c0.12-0.08,0.22-0.12,0.33-0.12c0.13,0,0.25,0.05,0.36,0.16c0.11,0.11,0.16,0.23,0.16,0.35c0,0.13-0.06,0.26-0.19,0.4
			c-0.01,0-0.17,0.14-0.48,0.42c-0.31,0.28-0.73,0.67-1.26,1.18c-0.53,0.51-1.13,1.12-1.81,1.85c-0.68,0.72-1.4,1.53-2.16,2.44
			c-0.03,0.06-0.06,0.1-0.09,0.14c-0.37,2.84-0.81,5.58-1.33,8.22c-0.52,2.63-1.12,4.81-1.8,6.53c-0.65,1.59-1.35,2.84-2.11,3.73
			S116.36,117.07,115.66,117.07z M115.66,116.05c0.22,0,0.5-0.14,0.86-0.41s0.74-0.73,1.17-1.38s0.87-1.52,1.33-2.63
			c0.62-1.57,1.17-3.52,1.65-5.83c0.47-2.32,0.87-4.66,1.2-7.03c-1.17,1.46-2.37,3.27-3.62,5.44s-2.24,4.54-2.96,7.11
			c-0.29,1.12-0.43,2.06-0.43,2.81c0,0.73,0.07,1.22,0.21,1.49C115.19,115.88,115.39,116.03,115.66,116.05z"/>
		<path class="st0" d="M64.25,121.08c0.89-0.3,1.08-1.11,1.08-3.05V106c0-1.94-0.19-2.75-1.08-3.05v-0.38h6.67
			c4.43,0,6.05,1.38,6.05,3.56c0,1.84-1.16,3.51-4.56,4.1c4.45,0.13,6.72,2.19,6.75,4.89c0.05,3.16-2.4,6.34-9.04,6.34h-5.86V121.08
			z M70.6,110.15c1.97,0,3.16-1.51,3.16-3.4c0-2.38-1.7-3.75-4.45-3.75h-1.11v7.15H70.6z M69.6,121.03h0.76
			c3.89,0,5.59-2.05,5.59-4.91c0-3.24-1.81-5.53-5.83-5.53h-1.92v8.1C68.19,120.63,68.44,121.03,69.6,121.03z"/>
		<path class="st0" d="M81.67,116.68v-4.86c0-1.59-0.4-1.86-1.08-2.16v-0.38l3.56-1.57l0.27,0.22v8.4c0,2.89,0.46,4.32,2.54,4.32
			c1.21,0,2.54-0.73,3.86-2.05v-6.77c0-1.59-0.41-1.86-1.08-2.16v-0.38l3.56-1.57l0.27,0.22v10.1c0,1.94,0.19,2.75,1.08,3.05v0.38
			H91.9c-0.7,0-1.08-0.38-1.08-1.08v-1.21c-1.54,1.48-3.4,2.56-5.1,2.56C82.86,121.73,81.67,119.98,81.67,116.68z"/>
		<path class="st0" d="M96.3,115.23c0-4.13,2.83-7.42,7.53-7.42c1.13,0,2.08,0.27,2.89,0.67v-4.75c0-1.59-0.4-1.86-1.08-2.16v-0.38
			l3.56-1.57l0.27,0.22v18.19c0,1.94,0.19,2.75,1.08,3.05v0.38h-2.75c-0.7,0-1.08-0.38-1.08-1.08v-1.13
			c-1.03,1.19-2.65,2.59-4.67,2.54C98.62,121.73,96.3,118.57,96.3,115.23z M103.72,120.17c1.19,0,2.21-0.65,3-1.48v-5.97
			c0-2-1.75-4.35-4.02-4.35c-2.97,0-3.75,2.54-3.75,4.67C98.95,115.6,99.84,120.17,103.72,120.17z"/>
		<path class="st0" d="M111.88,115.23c0-4.13,2.83-7.42,7.53-7.42c1.13,0,2.08,0.27,2.89,0.67v-4.75c0-1.59-0.4-1.86-1.08-2.16
			v-0.38l3.56-1.57l0.27,0.22v18.19c0,1.94,0.19,2.75,1.08,3.05v0.38h-2.75c-0.7,0-1.08-0.38-1.08-1.08v-1.13
			c-1.03,1.19-2.65,2.59-4.67,2.54C114.2,121.73,111.88,118.57,111.88,115.23z M119.3,120.17c1.19,0,2.21-0.65,3-1.48v-5.97
			c0-2-1.75-4.35-4.02-4.35c-2.97,0-3.75,2.54-3.75,4.67C114.53,115.6,115.42,120.17,119.3,120.17z"/>
		<path class="st0" d="M125.62,125.81c0-0.51,0.73-1.7,2-1.7c0.78,0,2.27,0.24,3.67,0.49c0.65-0.7,1.3-1.75,1.89-3l-4.54-10.47
			c-0.76-1.81-1.48-2.48-2.11-2.78v-0.38h4.78v0.38c-0.89,0.3-0.49,0.97,0.3,2.75l3.08,7.02l3.02-6.99c0.76-1.81,0.62-2.56-0.3-2.78
			v-0.38h3.08v0.38c-0.81,0.3-1.57,0.97-2.35,2.75l-4.13,9.56c-2.05,4.72-3.94,5.97-6.42,6.02
			C126.49,126.7,125.62,126.35,125.62,125.81z"/>
	</g>
</g>
</svg>
